<?xml version="1.0" encoding="iso-8859-1"?>
<!-- Uploaded to: SVG Repo, www.svgrepo.com, Generator: SVG Repo Mixer Tools -->
<svg height="800px" width="800px" version="1.1" id="Layer_1" xmlns="http://www.w3.org/2000/svg" xmlns:xlink="http://www.w3.org/1999/xlink" 
	 viewBox="0 0 512 512" xml:space="preserve">
<path style="fill:#36CD90;" d="M481.85,172.042c0,54.814-44.596,99.41-99.41,99.41c-25.376,0-48.564-9.558-66.141-25.271
	c-20.403-18.215-33.269-44.701-33.269-74.139c0-54.824,44.596-99.421,99.41-99.421c26.004,0,49.716,10.039,67.439,26.454
	C469.529,117.238,481.85,143.232,481.85,172.042z"/>
<path style="fill:#00A653;" d="M481.85,172.042c0,54.814-44.596,99.41-99.41,99.41c-25.376,0-48.564-9.558-66.141-25.271
	l133.58-147.105C469.529,117.238,481.85,143.232,481.85,172.042z"/>
<path style="fill:#36CD90;" d="M289.772,129.811c0,47.015-25.125,88.261-62.644,111.041c-19.608,11.913-42.597,18.77-67.167,18.77
	c-71.585,0-129.811-58.237-129.811-129.811c0-46.156,24.214-86.775,60.613-109.795C110.811,7.349,134.543,0,159.961,0
	C231.535,0,289.772,58.237,289.772,129.811z"/>
<path style="fill:#00A653;" d="M289.772,129.811c0,47.015-25.125,88.261-62.644,111.041L90.763,20.016
	C110.811,7.349,134.543,0,159.961,0C231.535,0,289.772,58.237,289.772,129.811z"/>
<polygon style="fill:#A17852;" points="279.942,480.594 317.346,480.594 317.346,512 211.142,512 211.142,480.594 248.536,480.594 
	248.536,304.386 131.517,115.605 158.212,99.065 267.348,275.116 363.67,169.927 375.615,180.867 375.625,180.867 386.837,191.136 
	279.942,307.851 "/>
<polygon style="fill:#735538;" points="279.942,480.594 317.346,480.594 317.346,512 265.299,512 265.105,302.956 375.615,180.867 
	375.625,180.867 386.837,191.136 279.942,307.851 "/>
</svg>